<?xml version="1.0" encoding="UTF-8" standalone="no"?>
<!-- Created with Inkscape (http://www.inkscape.org/) -->

<svg
   xmlns:dc="http://purl.org/dc/elements/1.1/"
   xmlns:cc="http://creativecommons.org/ns#"
   xmlns:rdf="http://www.w3.org/1999/02/22-rdf-syntax-ns#"
   xmlns:svg="http://www.w3.org/2000/svg"
   xmlns="http://www.w3.org/2000/svg"
   xmlns:xlink="http://www.w3.org/1999/xlink"
   xmlns:sodipodi="http://sodipodi.sourceforge.net/DTD/sodipodi-0.dtd"
   xmlns:inkscape="http://www.inkscape.org/namespaces/inkscape"
   width="32"
   height="32"
   viewBox="0 0 32 32"
   id="svg2"
   version="1.1"
   inkscape:version="0.91 r13725"
   sodipodi:docname="drawing.svg"
   inkscape:export-filename="/home/terto/Desktop/pattypan32.png"
   inkscape:export-xdpi="90"
   inkscape:export-ydpi="90">
  <defs
     id="defs4">
    <linearGradient
       inkscape:collect="always"
       id="linearGradient4875">
      <stop
         style="stop-color:#fcffac;stop-opacity:1"
         offset="0"
         id="stop4877" />
      <stop
         style="stop-color:#fbff8d;stop-opacity:0;"
         offset="1"
         id="stop4879" />
    </linearGradient>
    <linearGradient
       inkscape:collect="always"
       id="linearGradient4751">
      <stop
         style="stop-color:#dcc404;stop-opacity:1"
         offset="0"
         id="stop4753" />
      <stop
         style="stop-color:#fce94f;stop-opacity:0;"
         offset="1"
         id="stop4755" />
    </linearGradient>
    <linearGradient
       inkscape:collect="always"
       id="linearGradient4723">
      <stop
         style="stop-color:#fef5ac;stop-opacity:1;"
         offset="0"
         id="stop4725" />
      <stop
         style="stop-color:#fef5ac;stop-opacity:0;"
         offset="1"
         id="stop4727" />
    </linearGradient>
    <radialGradient
       inkscape:collect="always"
       xlink:href="#linearGradient4723"
       id="radialGradient4731"
       cx="22.947695"
       cy="1029.0001"
       fx="22.947695"
       fy="1029.0001"
       r="15.631629"
       gradientTransform="matrix(1.2411454,0,0,1.2454603,-5.6096496,-252.5221)"
       gradientUnits="userSpaceOnUse" />
    <linearGradient
       inkscape:collect="always"
       xlink:href="#linearGradient4751"
       id="linearGradient4757"
       x1="2.8181703"
       y1="29.17902"
       x2="13.07972"
       y2="21.80402"
       gradientUnits="userSpaceOnUse"
       gradientTransform="matrix(0.98895544,0,0,0.98895544,0.17752961,1020.5381)" />
    <linearGradient
       inkscape:collect="always"
       xlink:href="#linearGradient4875"
       id="linearGradient4881"
       x1="14.359582"
       y1="1036.6041"
       x2="15.277552"
       y2="1039.2292"
       gradientUnits="userSpaceOnUse"
       gradientTransform="matrix(0.99386693,0,0,0.99825367,-0.14915104,1.4965725)" />
  </defs>
  <sodipodi:namedview
     id="base"
     pagecolor="#ffffff"
     bordercolor="#666666"
     borderopacity="1.0"
     inkscape:pageopacity="0.0"
     inkscape:pageshadow="2"
     inkscape:zoom="8.0000002"
     inkscape:cx="11.778341"
     inkscape:cy="2.8630511"
     inkscape:document-units="px"
     inkscape:current-layer="layer1"
     showgrid="false"
     units="px"
     inkscape:snap-page="true"
     inkscape:snap-object-midpoints="false"
     showguides="true"
     inkscape:guide-bbox="true"
     inkscape:window-width="1024"
     inkscape:window-height="702"
     inkscape:window-x="0"
     inkscape:window-y="27"
     inkscape:window-maximized="1"
     inkscape:snap-global="true"
     inkscape:object-nodes="true"
     inkscape:object-paths="true"
     showborder="true"
     inkscape:snap-nodes="true"
     inkscape:snap-bbox="false" />
  <metadata
     id="metadata7">
    <rdf:RDF>
      <cc:Work
         rdf:about="">
        <dc:format>image/svg+xml</dc:format>
        <dc:type
           rdf:resource="http://purl.org/dc/dcmitype/StillImage" />
        <dc:title />
      </cc:Work>
    </rdf:RDF>
  </metadata>
  <g
     inkscape:label="Layer 1"
     inkscape:groupmode="layer"
     id="layer1"
     transform="translate(0,-1020.3622)">
    <g
       id="g4895"
       transform="matrix(1.0023129,0,0,1.0023129,-0.11112378,-2.3258765)">
      <path
         sodipodi:nodetypes="scccsccccccccccccccs"
         inkscape:connector-curvature="0"
         id="path4688"
         d="m 6.7003861,1020.9611 c -0.4943011,0.039 -0.925256,0.3655 -1.3018671,0.9948 -2.1888479,-0.012 -2.4231681,1.1663 -0.4906147,3.4845 0.3603288,0.4334 0.7281943,0.7864 1.0951909,1.1415 -0.4008123,-0.2527 -0.8222241,-0.4899 -1.28062,-0.6953 -2.5742443,-1.1535 -3.5665119,-0.4601 -2.8104105,2.6385 -0.5357559,1.0865 -0.5656635,2.0787 -0.108167,2.9456 -2.9113689,4.9024 0.9706304,14.847 2.4917042,16.368 1.5139134,1.5139 11.6263411,5.6186 16.5920451,2.8239 0.837563,0.4747 1.821637,0.4494 3.019019,-0.141 2.816205,0.687 3.796023,-0.2361 2.642365,-2.8104 -0.205302,-0.4584 -0.44369,-0.8807 -0.697291,-1.2806 0.351341,0.37 0.710441,0.7372 1.14348,1.0971 2.318074,1.9325 3.4911,1.916 3.484522,-0.4925 1.524802,-0.9128 1.194105,-2.4001 -1.124164,-4.3325 -0.338859,-0.2828 -0.666317,-0.5283 -0.988955,-0.7533 0.560138,-3.3279 0.0069,-9.2016 -4.327231,-13.6515 -4.334186,-4.4499 -10.262149,-5.3635 -13.715411,-4.4549 -0.183455,-0.2498 -0.3774145,-0.5048 -0.5929874,-0.7649 -1.2077622,-1.4489 -2.2067722,-2.1818 -3.0306075,-2.117 z"
         style="opacity:1;fill:#fce94f;fill-opacity:1;stroke:#c4a000;stroke-width:0.98895544;stroke-linecap:round;stroke-linejoin:miter;stroke-miterlimit:4;stroke-dasharray:none;stroke-opacity:1" />
      <path
         style="opacity:1;fill:url(#linearGradient4757);fill-opacity:1;stroke:#c4a000;stroke-width:0.98895544;stroke-linecap:round;stroke-linejoin:miter;stroke-miterlimit:4;stroke-dasharray:none;stroke-opacity:1"
         d="m 6.7003861,1020.9611 c -0.4943011,0.039 -0.925256,0.3655 -1.3018671,0.9948 -2.1888479,-0.012 -2.4231681,1.1663 -0.4906147,3.4845 0.3603288,0.4334 0.7281943,0.7864 1.0951909,1.1415 -0.4008123,-0.2527 -0.8222241,-0.4899 -1.28062,-0.6953 -2.5742443,-1.1535 -3.5665119,-0.4601 -2.8104105,2.6385 -0.5357559,1.0865 -0.5656635,2.0787 -0.108167,2.9456 -2.9113689,4.9024 0.9706304,14.847 2.4917042,16.368 1.5139134,1.5139 11.6263411,5.6186 16.5920451,2.8239 0.837563,0.4747 1.821637,0.4494 3.019019,-0.141 2.816205,0.687 3.796023,-0.2361 2.642365,-2.8104 -0.205302,-0.4584 -0.44369,-0.8807 -0.697291,-1.2806 0.351341,0.37 0.710441,0.7372 1.14348,1.0971 2.318074,1.9325 3.4911,1.916 3.484522,-0.4925 1.524802,-0.9128 1.194105,-2.4001 -1.124164,-4.3325 -0.338859,-0.2828 -0.666317,-0.5283 -0.988955,-0.7533 0.560138,-3.3279 0.0069,-9.2016 -4.327231,-13.6515 -4.334186,-4.4499 -10.262149,-5.3635 -13.715411,-4.4549 -0.183455,-0.2498 -0.3774145,-0.5048 -0.5929874,-0.7649 -1.2077622,-1.4489 -2.2067722,-2.1818 -3.0306075,-2.117 z"
         id="path4749"
         inkscape:connector-curvature="0"
         sodipodi:nodetypes="scccsccccccccccccccs" />
      <path
         sodipodi:nodetypes="scscccccccccccccccccccscscs"
         inkscape:connector-curvature="0"
         id="path4733"
         d="m 19.540801,1033.769 c -2.934652,-2.8523 -8.118039,-3.7288 -11.0238304,-2.9857 -0.1415504,-0.1873 -0.2910383,-0.3786 -0.4573699,-0.5735 -1.4910163,-1.7385 -2.5676672,-2.0994 -3.3425622,-0.8412 -1.6888712,-0.011 -1.8700641,0.8747 -0.3789446,2.6129 0.2780226,0.3252 0.5627046,0.5902 0.8458717,0.8567 -0.3092587,-0.1896 -0.6343062,-0.3683 -0.9879954,-0.5223 -1.9862353,-0.8649 -2.7530506,-0.3441 -2.1696579,1.9795 -0.7816816,1.5408 -0.2087659,2.8356 1.7776423,3.7005 0.4223154,0.184 0.8144518,0.3081 1.1820462,0.3882 -0.3440245,0 -0.6884478,0.038 -1.027543,0.132 -1.5981514,0.4492 -1.5998787,1.5133 0.3576413,3.5361 0.723977,2.1341 1.9366897,3.09 3.5348315,2.6406 0.3409268,-0.095 0.623752,-0.2339 0.862442,-0.4011 -0.1720872,0.232 -0.31417,0.507 -0.412764,0.8382 -0.4621638,1.5531 0.3007685,2.6612 2.7172424,3.4354 1.89027,1.7301 3.176231,1.901 3.638368,0.3476 0.09782,-0.3286 0.137523,-0.6622 0.135424,-0.9957 0.08251,0.3561 0.210006,0.7355 0.398646,1.1446 0.890024,1.9303 2.063278,2.5635 3.807574,1.7277 2.172929,0.5151 2.928218,-0.177 2.038077,-2.1074 -0.158407,-0.3437 -0.341662,-0.6603 -0.537335,-0.9603 0.271086,0.2775 0.547181,0.5523 0.881303,0.8222 1.788581,1.4491 2.693735,1.4378 2.688661,-0.3685 1.176505,-0.6843 0.92194,-1.8004 -0.866791,-3.2497 -0.261456,-0.2121 -0.513837,-0.3961 -0.762778,-0.5647 0.477839,-2.7592 -0.08617,-7.8593 -2.898199,-10.5921 z"
         style="opacity:1;fill:#d6c000;fill-opacity:1;stroke:none;stroke-width:1;stroke-linecap:round;stroke-linejoin:miter;stroke-miterlimit:4;stroke-dasharray:none;stroke-opacity:1" />
      <path
         sodipodi:nodetypes="scscccccccccccccccccccscscs"
         inkscape:connector-curvature="0"
         id="path4484"
         d="m 24.610891,1027.8239 c -3.803431,-3.8035 -10.521319,-4.9724 -14.287346,-3.9816 -0.183455,-0.2498 -0.3771978,-0.5047 -0.5927706,-0.7648 -1.9324196,-2.3182 -3.3278042,-2.7998 -4.3321007,-1.1218 -2.1888479,-0.012 -2.4236814,1.1665 -0.491128,3.4847 0.3603288,0.4334 0.7292885,0.787 1.0962851,1.1421 -0.4008123,-0.2528 -0.8220875,-0.491 -1.2804833,-0.6964 -2.5742443,-1.1535 -3.5680691,-0.4589 -2.8119677,2.6397 -1.01309212,2.0547 -0.2705693,3.7815 2.3038989,4.9349 0.5473384,0.2453 1.0555638,0.4109 1.5319814,0.5177 -0.4458703,0 -0.8922572,0.05 -1.3317388,0.1762 -2.0712711,0.599 -2.0735097,2.0182 0.4635181,4.7154 0.9383044,2.8463 2.510031,4.1208 4.5812897,3.5216 0.4418555,-0.1277 0.8084089,-0.3118 1.1177609,-0.535 -0.223032,0.3094 -0.407178,0.6761 -0.534959,1.1179 -0.598984,2.0711 0.389808,3.5488 3.521659,4.5812 2.449868,2.3071 4.116529,2.535 4.715479,0.4636 0.126769,-0.4383 0.178235,-0.8833 0.175513,-1.3279 0.106919,0.475 0.272179,0.9809 0.516662,1.5265 1.153511,2.5742 2.674096,3.4185 4.934777,2.3039 2.816205,0.687 3.795091,-0.236 2.641433,-2.8103 -0.205302,-0.4584 -0.442809,-0.8806 -0.69641,-1.2805 0.35134,0.37 0.70917,0.7363 1.142208,1.0962 2.318074,1.9325 3.491192,1.9174 3.484615,-0.4911 1.524801,-0.9127 1.194873,-2.4013 -1.123396,-4.3337 -0.338859,-0.2827 -0.665955,-0.5283 -0.988594,-0.7533 0.6193,-3.6794 -0.111681,-10.4806 -3.756186,-14.1252 z"
         style="opacity:1;fill:#fce94f;fill-opacity:1;stroke:#c4a000;stroke-width:0.98895544;stroke-linecap:round;stroke-linejoin:miter;stroke-miterlimit:4;stroke-dasharray:none;stroke-opacity:1" />
      <path
         style="opacity:1;fill:url(#radialGradient4731);fill-opacity:1;stroke:#c4a000;stroke-width:0.98895544;stroke-linecap:round;stroke-linejoin:miter;stroke-miterlimit:4;stroke-dasharray:none;stroke-opacity:1"
         d="m 24.610891,1027.8239 c -3.803431,-3.8035 -10.521319,-4.9724 -14.287346,-3.9816 -0.183455,-0.2498 -0.3771978,-0.5047 -0.5927706,-0.7648 -1.9324196,-2.3182 -3.3278042,-2.7998 -4.3321007,-1.1218 -2.1888479,-0.012 -2.4236814,1.1665 -0.491128,3.4847 0.3603288,0.4334 0.7292885,0.787 1.0962851,1.1421 -0.4008123,-0.2528 -0.8220875,-0.491 -1.2804833,-0.6964 -2.5742443,-1.1535 -3.5680691,-0.4589 -2.8119677,2.6397 -1.01309212,2.0547 -0.2705693,3.7815 2.3038989,4.9349 0.5473384,0.2453 1.0555638,0.4109 1.5319814,0.5177 -0.4458703,0 -0.8922572,0.05 -1.3317388,0.1762 -2.0712711,0.599 -2.0735097,2.0182 0.4635181,4.7154 0.9383044,2.8463 2.510031,4.1208 4.5812897,3.5216 0.4418555,-0.1277 0.8084089,-0.3118 1.1177609,-0.535 -0.223032,0.3094 -0.407178,0.6761 -0.534959,1.1179 -0.598984,2.0711 0.389808,3.5488 3.521659,4.5812 2.449868,2.3071 4.116529,2.535 4.715479,0.4636 0.126769,-0.4383 0.178235,-0.8833 0.175513,-1.3279 0.106919,0.475 0.272179,0.9809 0.516662,1.5265 1.153511,2.5742 2.674096,3.4185 4.934777,2.3039 2.816205,0.687 3.795091,-0.236 2.641433,-2.8103 -0.205302,-0.4584 -0.442809,-0.8806 -0.69641,-1.2805 0.35134,0.37 0.70917,0.7363 1.142208,1.0962 2.318074,1.9325 3.491192,1.9174 3.484615,-0.4911 1.524801,-0.9127 1.194873,-2.4013 -1.123396,-4.3337 -0.338859,-0.2827 -0.665955,-0.5283 -0.988594,-0.7533 0.6193,-3.6794 -0.111681,-10.4806 -3.756186,-14.1252 z"
         id="path4697"
         inkscape:connector-curvature="0"
         sodipodi:nodetypes="scscccccccccccccccccccscscs" />
      <path
         sodipodi:nodetypes="scscccccccccccccccccccscscs"
         inkscape:connector-curvature="0"
         id="path4873"
         d="m 23.654447,1028.1839 c -3.474449,-3.4898 -9.611263,-4.5623 -13.051544,-3.6532 -0.167586,-0.2293 -0.344571,-0.4632 -0.541497,-0.7018 -1.7652729,-2.127 -3.0399619,-2.5688 -3.9573906,-1.0293 -1.9995208,-0.01 -2.214042,1.0704 -0.4486473,3.1974 0.3291617,0.3977 0.6662077,0.7221 1.0014605,1.0479 -0.3661434,-0.2319 -0.75098,-0.4504 -1.1697261,-0.639 -2.3515819,-1.0583 -3.2594445,-0.421 -2.5687431,2.4221 -0.9254635,1.8851 -0.2471661,3.4697 2.1046202,4.528 0.4999958,0.225 0.9642614,0.3769 1.3994707,0.4749 -0.4073041,0 -0.8150803,0.046 -1.2165483,0.1616 -1.892114,0.5497 -1.8941589,1.8519 0.4234256,4.3266 0.8571445,2.6115 2.2929226,3.781 4.1850258,3.2313 0.4036356,-0.1174 0.7384836,-0.2861 1.0210776,-0.4909 -0.20374,0.2838 -0.371958,0.6202 -0.488686,1.0257 -0.5471746,1.9002 0.35609,3.2562 3.217048,4.2034 2.237964,2.1168 3.760465,2.326 4.307608,0.4254 0.115804,-0.4022 0.162818,-0.8105 0.160331,-1.2184 0.09766,0.4357 0.248637,0.8998 0.471973,1.4006 1.053737,2.362 2.442797,3.1366 4.507937,2.1139 2.572615,0.6303 3.466831,-0.2166 2.412959,-2.5786 -0.187544,-0.4206 -0.404507,-0.8079 -0.636172,-1.1749 0.32095,0.3396 0.647829,0.6756 1.043411,1.0058 2.117568,1.7731 3.189216,1.7592 3.183209,-0.4505 1.392911,-0.8375 1.09152,-2.2034 -1.026227,-3.9764 -0.309549,-0.2594 -0.608352,-0.4847 -0.903085,-0.6912 0.565733,-3.3759 -0.102021,-9.6164 -3.43129,-12.9604 z"
         style="opacity:1;fill:none;fill-opacity:1;stroke:url(#linearGradient4881);stroke-width:0.90540612;stroke-linecap:round;stroke-linejoin:miter;stroke-miterlimit:4;stroke-dasharray:none;stroke-opacity:1" />
      <path
         sodipodi:nodetypes="ccccccccccccc"
         inkscape:connector-curvature="0"
         id="ellipse4770"
         d="m 21.991397,1026.2518 c -0.112782,0.02 -0.221198,0.043 -0.32373,0.074 -0.862924,0.2585 -1.129869,0.8416 -0.59607,1.3021 0.158295,0.1361 0.376723,0.2514 0.636146,0.3357 -0.377464,0.8033 -0.124247,1.3826 0.5682,1.2999 0.239512,-0.03 0.511843,-0.1363 0.78543,-0.3094 0.09293,0.2105 0.203938,0.404 0.327093,0.5701 0.534078,0.7227 1.171684,0.7773 1.425199,0.122 0.08638,-0.2233 0.119805,-0.5115 0.09644,-0.8317 0.616618,-1.0817 3.006557,-2.7525 3.316585,-3.238 0.310028,-0.4856 0.05967,-1.1344 -0.77766,-2.0446 -0.837327,-0.9102 -1.365493,-1.1814 -2.059958,-1.0145 -0.694464,0.167 -2.264406,3.0605 -3.397677,3.734 z"
         style="opacity:1;fill:#73d216;fill-opacity:1;stroke:#4e9a06;stroke-width:0.98895544;stroke-linecap:round;stroke-linejoin:miter;stroke-miterlimit:4;stroke-dasharray:none;stroke-opacity:1" />
    </g>
  </g>
</svg>
